<?xml version="1.0" standalone="no"?>
<!DOCTYPE svg PUBLIC "-//W3C//DTD SVG 20010904//EN"
 "http://www.w3.org/TR/2001/REC-SVG-20010904/DTD/svg10.dtd">
<svg version="1.0" xmlns="http://www.w3.org/2000/svg"
 width="512.000000pt" height="512.000000pt" viewBox="0 0 512.000000 512.000000"
 preserveAspectRatio="xMidYMid meet">
<metadata>
Created by potrace 1.16, written by Peter Selinger 2001-2019
</metadata>
<g transform="translate(0.000000,512.000000) scale(0.100000,-0.100000)"
fill="#FFFFFF" stroke="none">
<path d="M2265 4945 c-376 -51 -735 -185 -1032 -384 -571 -383 -935 -953
-1050 -1646 -22 -134 -25 -551 -5 -680 87 -554 303 -985 687 -1371 306 -308
653 -509 1075 -624 233 -63 382 -80 670 -75 246 4 364 19 580 76 374 99 748
313 1039 594 375 362 617 828 706 1355 20 113 28 506 15 625 -34 291 -108 544
-235 800 -240 486 -614 861 -1095 1098 -224 110 -417 173 -669 218 -152 27
-536 35 -686 14z m550 -249 c88 -10 242 -40 320 -63 141 -42 234 -79 383 -150
545 -261 968 -782 1121 -1378 56 -220 74 -384 67 -610 -3 -93 -10 -197 -16
-230 -6 -33 -13 -77 -16 -99 -15 -100 -73 -301 -119 -408 -175 -419 -441 -746
-801 -986 -159 -107 -408 -225 -564 -269 -30 -8 -77 -22 -105 -29 -27 -8 -77
-19 -110 -24 -33 -5 -87 -14 -120 -20 -115 -20 -389 -23 -540 -6 -77 9 -153
21 -170 25 -16 5 -48 12 -70 16 -163 25 -517 177 -700 300 -500 336 -818 821
-934 1425 -37 194 -38 592 -1 730 5 19 11 52 14 72 20 131 93 344 176 514 144
292 338 535 590 736 314 250 708 412 1112 457 82 9 387 7 483 -3z"/>
</g>
</svg>
